<?xml version="1.0" standalone="no"?>
<!DOCTYPE svg PUBLIC "-//W3C//DTD SVG 20010904//EN"
 "http://www.w3.org/TR/2001/REC-SVG-20010904/DTD/svg10.dtd">
<svg version="1.0" xmlns="http://www.w3.org/2000/svg"
 width="200.000000pt" height="200.000000pt" viewBox="0 0 200.000000 200.000000"
 preserveAspectRatio="xMidYMid meet">

<g transform="translate(0.000000,200.000000) scale(0.100000,-0.100000)"
fill="#000000" stroke="none">
<path d="M811 1893 l-172 -106 83 -46 c46 -26 121 -68 168 -93 l85 -47 167
102 c92 55 165 104 162 108 -3 5 -267 160 -315 185 -3 2 -83 -45 -178 -103z"/>
<path d="M1303 1623 c-89 -54 -162 -100 -163 -103 0 -3 87 -55 193 -116 l192
-110 3 -294 2 -295 -266 -148 -266 -148 -57 32 c-31 17 -147 83 -258 146
l-203 115 0 228 0 228 -166 86 c-91 47 -170 86 -175 86 -5 0 -9 -177 -9 -414
l0 -414 422 -248 c232 -136 427 -247 433 -247 6 0 208 111 448 247 l437 248 0
498 0 498 -186 107 c-103 59 -194 109 -203 112 -9 2 -89 -40 -178 -94z"/>
</g>
</svg>
